<mxfile host="app.diagrams.net" modified="2023-10-30T03:31:02.463Z" agent="Mozilla/5.0 (Windows NT 10.0; Win64; x64) AppleWebKit/537.36 (KHTML, like Gecko) Chrome/118.0.0.0 Safari/537.36" etag="_yxOBvJSknIpHobfeVWo" version="22.0.8" type="device">
  <diagram name="Page-1" id="Bt_czaPvXHZHWaKobuq_">
    <mxGraphModel dx="954" dy="665" grid="1" gridSize="10" guides="1" tooltips="1" connect="1" arrows="1" fold="1" page="1" pageScale="1" pageWidth="850" pageHeight="1100" math="0" shadow="0">
      <root>
        <mxCell id="0" />
        <mxCell id="1" parent="0" />
        <mxCell id="peirUXlElTm4W4tFbfPy-1" value="&lt;span style=&quot;font-size: 31px;&quot;&gt;의사 매칭 시스템&lt;/span&gt;" style="rounded=0;whiteSpace=wrap;html=1;" parent="1" vertex="1">
          <mxGeometry x="60" y="200" width="280" height="50" as="geometry" />
        </mxCell>
        <mxCell id="peirUXlElTm4W4tFbfPy-14" value="" style="line;strokeWidth=2;direction=south;html=1;" parent="1" vertex="1">
          <mxGeometry x="90" y="250" width="10" height="770" as="geometry" />
        </mxCell>
        <mxCell id="peirUXlElTm4W4tFbfPy-22" style="edgeStyle=orthogonalEdgeStyle;rounded=0;orthogonalLoop=1;jettySize=auto;html=1;endArrow=none;endFill=0;" parent="1" edge="1">
          <mxGeometry relative="1" as="geometry">
            <mxPoint x="200" y="570" as="targetPoint" />
            <mxPoint x="199.67000000000002" y="300" as="sourcePoint" />
          </mxGeometry>
        </mxCell>
        <mxCell id="peirUXlElTm4W4tFbfPy-17" value="&lt;font style=&quot;font-size: 20px;&quot;&gt;환자&lt;/font&gt;" style="rounded=0;whiteSpace=wrap;html=1;" parent="1" vertex="1">
          <mxGeometry x="190" y="270" width="80" height="30" as="geometry" />
        </mxCell>
        <mxCell id="peirUXlElTm4W4tFbfPy-23" value="" style="endArrow=none;html=1;rounded=0;" parent="1" edge="1">
          <mxGeometry width="50" height="50" relative="1" as="geometry">
            <mxPoint x="200" y="320" as="sourcePoint" />
            <mxPoint x="240" y="320" as="targetPoint" />
          </mxGeometry>
        </mxCell>
        <mxCell id="peirUXlElTm4W4tFbfPy-24" value="&lt;span style=&quot;font-size: 20px;&quot;&gt;로그인 및 회원가입&lt;/span&gt;" style="rounded=0;whiteSpace=wrap;html=1;" parent="1" vertex="1">
          <mxGeometry x="240" y="310" width="180" height="30" as="geometry" />
        </mxCell>
        <mxCell id="peirUXlElTm4W4tFbfPy-25" value="" style="endArrow=none;html=1;rounded=0;" parent="1" edge="1">
          <mxGeometry width="50" height="50" relative="1" as="geometry">
            <mxPoint x="200" y="370" as="sourcePoint" />
            <mxPoint x="240" y="370" as="targetPoint" />
          </mxGeometry>
        </mxCell>
        <mxCell id="peirUXlElTm4W4tFbfPy-26" value="&lt;span style=&quot;font-size: 20px;&quot;&gt;댓글달기&lt;/span&gt;" style="rounded=0;whiteSpace=wrap;html=1;" parent="1" vertex="1">
          <mxGeometry x="240" y="360" width="180" height="30" as="geometry" />
        </mxCell>
        <mxCell id="peirUXlElTm4W4tFbfPy-28" value="" style="endArrow=none;html=1;rounded=0;" parent="1" edge="1">
          <mxGeometry width="50" height="50" relative="1" as="geometry">
            <mxPoint x="200" y="420" as="sourcePoint" />
            <mxPoint x="240" y="420" as="targetPoint" />
          </mxGeometry>
        </mxCell>
        <mxCell id="peirUXlElTm4W4tFbfPy-29" value="&lt;span style=&quot;font-size: 20px;&quot;&gt;즐겨찾기&lt;/span&gt;" style="rounded=0;whiteSpace=wrap;html=1;" parent="1" vertex="1">
          <mxGeometry x="240" y="410" width="180" height="30" as="geometry" />
        </mxCell>
        <mxCell id="peirUXlElTm4W4tFbfPy-30" value="" style="endArrow=none;html=1;rounded=0;" parent="1" edge="1">
          <mxGeometry width="50" height="50" relative="1" as="geometry">
            <mxPoint x="200" y="470" as="sourcePoint" />
            <mxPoint x="240" y="470" as="targetPoint" />
          </mxGeometry>
        </mxCell>
        <mxCell id="peirUXlElTm4W4tFbfPy-31" value="&lt;span style=&quot;font-size: 20px;&quot;&gt;추천하기&lt;/span&gt;" style="rounded=0;whiteSpace=wrap;html=1;" parent="1" vertex="1">
          <mxGeometry x="240" y="460" width="180" height="30" as="geometry" />
        </mxCell>
        <mxCell id="peirUXlElTm4W4tFbfPy-32" value="" style="endArrow=none;html=1;rounded=0;" parent="1" edge="1">
          <mxGeometry width="50" height="50" relative="1" as="geometry">
            <mxPoint x="200" y="520" as="sourcePoint" />
            <mxPoint x="240" y="520" as="targetPoint" />
          </mxGeometry>
        </mxCell>
        <mxCell id="peirUXlElTm4W4tFbfPy-33" value="&lt;span style=&quot;font-size: 20px;&quot;&gt;예약잡기&lt;/span&gt;" style="rounded=0;whiteSpace=wrap;html=1;" parent="1" vertex="1">
          <mxGeometry x="240" y="510" width="180" height="30" as="geometry" />
        </mxCell>
        <mxCell id="peirUXlElTm4W4tFbfPy-40" value="" style="endArrow=none;html=1;rounded=0;align=left;spacingLeft=0;" parent="1" edge="1">
          <mxGeometry width="50" height="50" relative="1" as="geometry">
            <mxPoint x="95" y="280" as="sourcePoint" />
            <mxPoint x="190" y="280.29999999999995" as="targetPoint" />
            <Array as="points">
              <mxPoint x="150" y="280.29999999999995" />
            </Array>
          </mxGeometry>
        </mxCell>
        <mxCell id="peirUXlElTm4W4tFbfPy-42" value="" style="endArrow=none;html=1;rounded=0;align=left;spacingLeft=0;exitX=0.068;exitY=0.528;exitDx=0;exitDy=0;exitPerimeter=0;" parent="1" edge="1">
          <mxGeometry width="50" height="50" relative="1" as="geometry">
            <mxPoint x="95" y="630" as="sourcePoint" />
            <mxPoint x="190" y="630" as="targetPoint" />
            <Array as="points">
              <mxPoint x="150" y="630" />
            </Array>
          </mxGeometry>
        </mxCell>
        <mxCell id="peirUXlElTm4W4tFbfPy-43" value="&lt;span style=&quot;font-size: 20px;&quot;&gt;의사 기본정보 작성&lt;/span&gt;" style="rounded=0;whiteSpace=wrap;html=1;" parent="1" vertex="1">
          <mxGeometry x="240" y="710" width="210" height="30" as="geometry" />
        </mxCell>
        <mxCell id="peirUXlElTm4W4tFbfPy-44" style="edgeStyle=orthogonalEdgeStyle;rounded=0;orthogonalLoop=1;jettySize=auto;html=1;endArrow=none;endFill=0;" parent="1" edge="1">
          <mxGeometry relative="1" as="geometry">
            <mxPoint x="200" y="770" as="targetPoint" />
            <mxPoint x="199.41" y="650" as="sourcePoint" />
          </mxGeometry>
        </mxCell>
        <mxCell id="peirUXlElTm4W4tFbfPy-46" value="&lt;span style=&quot;font-size: 20px;&quot;&gt;로그인 및 회원가입&lt;/span&gt;" style="rounded=0;whiteSpace=wrap;html=1;" parent="1" vertex="1">
          <mxGeometry x="240" y="660" width="180" height="30" as="geometry" />
        </mxCell>
        <mxCell id="peirUXlElTm4W4tFbfPy-48" value="" style="endArrow=none;html=1;rounded=0;" parent="1" edge="1">
          <mxGeometry width="50" height="50" relative="1" as="geometry">
            <mxPoint x="200" y="570" as="sourcePoint" />
            <mxPoint x="240" y="570" as="targetPoint" />
          </mxGeometry>
        </mxCell>
        <mxCell id="peirUXlElTm4W4tFbfPy-50" value="&lt;span style=&quot;font-size: 20px;&quot;&gt;환자 기본 정보 작성&lt;/span&gt;" style="rounded=0;whiteSpace=wrap;html=1;" parent="1" vertex="1">
          <mxGeometry x="240" y="560" width="190" height="30" as="geometry" />
        </mxCell>
        <mxCell id="peirUXlElTm4W4tFbfPy-51" value="&lt;font style=&quot;font-size: 20px;&quot;&gt;의사&lt;/font&gt;" style="rounded=0;whiteSpace=wrap;html=1;" parent="1" vertex="1">
          <mxGeometry x="190" y="620" width="80" height="30" as="geometry" />
        </mxCell>
        <mxCell id="peirUXlElTm4W4tFbfPy-52" value="" style="endArrow=none;html=1;rounded=0;" parent="1" edge="1">
          <mxGeometry width="50" height="50" relative="1" as="geometry">
            <mxPoint x="200" y="670" as="sourcePoint" />
            <mxPoint x="240" y="670" as="targetPoint" />
          </mxGeometry>
        </mxCell>
        <mxCell id="peirUXlElTm4W4tFbfPy-53" value="" style="endArrow=none;html=1;rounded=0;" parent="1" edge="1">
          <mxGeometry width="50" height="50" relative="1" as="geometry">
            <mxPoint x="200" y="720" as="sourcePoint" />
            <mxPoint x="240" y="720" as="targetPoint" />
          </mxGeometry>
        </mxCell>
        <mxCell id="peirUXlElTm4W4tFbfPy-55" value="" style="endArrow=none;html=1;rounded=0;" parent="1" edge="1">
          <mxGeometry width="50" height="50" relative="1" as="geometry">
            <mxPoint x="200" y="770" as="sourcePoint" />
            <mxPoint x="240" y="770" as="targetPoint" />
          </mxGeometry>
        </mxCell>
        <mxCell id="peirUXlElTm4W4tFbfPy-56" value="&lt;span style=&quot;font-size: 20px;&quot;&gt;등록&lt;/span&gt;" style="rounded=0;whiteSpace=wrap;html=1;" parent="1" vertex="1">
          <mxGeometry x="240" y="760" width="80" height="30" as="geometry" />
        </mxCell>
        <mxCell id="peirUXlElTm4W4tFbfPy-58" value="" style="endArrow=none;html=1;rounded=0;align=left;spacingLeft=0;exitX=0.068;exitY=0.528;exitDx=0;exitDy=0;exitPerimeter=0;" parent="1" edge="1">
          <mxGeometry width="50" height="50" relative="1" as="geometry">
            <mxPoint x="95" y="838.82" as="sourcePoint" />
            <mxPoint x="190" y="838.82" as="targetPoint" />
            <Array as="points">
              <mxPoint x="150" y="838.82" />
            </Array>
          </mxGeometry>
        </mxCell>
        <mxCell id="peirUXlElTm4W4tFbfPy-59" value="&lt;font style=&quot;font-size: 20px;&quot;&gt;매칭&lt;/font&gt;" style="rounded=0;whiteSpace=wrap;html=1;" parent="1" vertex="1">
          <mxGeometry x="190" y="830" width="80" height="30" as="geometry" />
        </mxCell>
        <mxCell id="peirUXlElTm4W4tFbfPy-62" style="edgeStyle=orthogonalEdgeStyle;rounded=0;orthogonalLoop=1;jettySize=auto;html=1;endArrow=none;endFill=0;" parent="1" edge="1">
          <mxGeometry relative="1" as="geometry">
            <mxPoint x="210" y="920" as="targetPoint" />
            <mxPoint x="209.41" y="860" as="sourcePoint" />
          </mxGeometry>
        </mxCell>
        <mxCell id="peirUXlElTm4W4tFbfPy-63" value="" style="endArrow=none;html=1;rounded=0;" parent="1" edge="1">
          <mxGeometry width="50" height="50" relative="1" as="geometry">
            <mxPoint x="210" y="880" as="sourcePoint" />
            <mxPoint x="250" y="880" as="targetPoint" />
          </mxGeometry>
        </mxCell>
        <mxCell id="peirUXlElTm4W4tFbfPy-64" value="&lt;span style=&quot;font-size: 20px;&quot;&gt;의사 환자 공통정보 매칭&lt;/span&gt;" style="rounded=0;whiteSpace=wrap;html=1;" parent="1" vertex="1">
          <mxGeometry x="250" y="910" width="240" height="30" as="geometry" />
        </mxCell>
        <mxCell id="peirUXlElTm4W4tFbfPy-65" value="" style="endArrow=none;html=1;rounded=0;" parent="1" edge="1">
          <mxGeometry width="50" height="50" relative="1" as="geometry">
            <mxPoint x="490" y="924.5" as="sourcePoint" />
            <mxPoint x="530" y="924.5" as="targetPoint" />
          </mxGeometry>
        </mxCell>
        <mxCell id="peirUXlElTm4W4tFbfPy-66" value="&lt;span style=&quot;font-size: 20px;&quot;&gt;환자 진료과 및 위치 등록&lt;/span&gt;" style="rounded=0;whiteSpace=wrap;html=1;" parent="1" vertex="1">
          <mxGeometry x="250" y="870" width="240" height="30" as="geometry" />
        </mxCell>
        <mxCell id="peirUXlElTm4W4tFbfPy-67" value="" style="endArrow=none;html=1;rounded=0;" parent="1" edge="1">
          <mxGeometry width="50" height="50" relative="1" as="geometry">
            <mxPoint x="210" y="920" as="sourcePoint" />
            <mxPoint x="250" y="920" as="targetPoint" />
          </mxGeometry>
        </mxCell>
        <mxCell id="peirUXlElTm4W4tFbfPy-68" value="&lt;span style=&quot;font-size: 20px;&quot;&gt;환자 진료과 및 위치 조회&lt;/span&gt;" style="rounded=0;whiteSpace=wrap;html=1;" parent="1" vertex="1">
          <mxGeometry x="550" y="880" width="240" height="30" as="geometry" />
        </mxCell>
        <mxCell id="peirUXlElTm4W4tFbfPy-69" value="" style="endArrow=none;html=1;rounded=0;entryX=0;entryY=0.5;entryDx=0;entryDy=0;" parent="1" target="peirUXlElTm4W4tFbfPy-68" edge="1">
          <mxGeometry width="50" height="50" relative="1" as="geometry">
            <mxPoint x="530" y="924.5" as="sourcePoint" />
            <mxPoint x="570" y="924.5" as="targetPoint" />
          </mxGeometry>
        </mxCell>
        <mxCell id="peirUXlElTm4W4tFbfPy-70" value="&lt;span style=&quot;font-size: 20px;&quot;&gt;의사 진료과 및 위치 조회&lt;/span&gt;" style="rounded=0;whiteSpace=wrap;html=1;" parent="1" vertex="1">
          <mxGeometry x="550" y="940" width="240" height="30" as="geometry" />
        </mxCell>
        <mxCell id="peirUXlElTm4W4tFbfPy-71" value="" style="endArrow=none;html=1;rounded=0;" parent="1" edge="1">
          <mxGeometry width="50" height="50" relative="1" as="geometry">
            <mxPoint x="530" y="924.5" as="sourcePoint" />
            <mxPoint x="550" y="950" as="targetPoint" />
          </mxGeometry>
        </mxCell>
        <mxCell id="peirUXlElTm4W4tFbfPy-73" value="" style="endArrow=none;html=1;rounded=0;align=left;spacingLeft=0;exitX=0.068;exitY=0.528;exitDx=0;exitDy=0;exitPerimeter=0;" parent="1" edge="1">
          <mxGeometry width="50" height="50" relative="1" as="geometry">
            <mxPoint x="95" y="1020" as="sourcePoint" />
            <mxPoint x="190" y="1020" as="targetPoint" />
            <Array as="points">
              <mxPoint x="150" y="1020" />
            </Array>
          </mxGeometry>
        </mxCell>
        <mxCell id="peirUXlElTm4W4tFbfPy-74" value="&lt;font style=&quot;font-size: 20px;&quot;&gt;정보 조회&lt;/font&gt;" style="rounded=0;whiteSpace=wrap;html=1;" parent="1" vertex="1">
          <mxGeometry x="190" y="1010" width="90" height="30" as="geometry" />
        </mxCell>
        <mxCell id="peirUXlElTm4W4tFbfPy-78" style="edgeStyle=orthogonalEdgeStyle;rounded=0;orthogonalLoop=1;jettySize=auto;html=1;endArrow=none;endFill=0;" parent="1" edge="1">
          <mxGeometry relative="1" as="geometry">
            <mxPoint x="210" y="1110" as="targetPoint" />
            <mxPoint x="210" y="1040" as="sourcePoint" />
          </mxGeometry>
        </mxCell>
        <mxCell id="peirUXlElTm4W4tFbfPy-79" value="" style="endArrow=none;html=1;rounded=0;" parent="1" edge="1">
          <mxGeometry width="50" height="50" relative="1" as="geometry">
            <mxPoint x="210" y="1060" as="sourcePoint" />
            <mxPoint x="250" y="1060" as="targetPoint" />
          </mxGeometry>
        </mxCell>
        <mxCell id="peirUXlElTm4W4tFbfPy-80" value="&lt;span style=&quot;font-size: 20px;&quot;&gt;의사 정보 조회&lt;/span&gt;" style="rounded=0;whiteSpace=wrap;html=1;" parent="1" vertex="1">
          <mxGeometry x="240" y="1050" width="160" height="30" as="geometry" />
        </mxCell>
        <mxCell id="peirUXlElTm4W4tFbfPy-82" value="" style="endArrow=none;html=1;rounded=0;" parent="1" edge="1">
          <mxGeometry width="50" height="50" relative="1" as="geometry">
            <mxPoint x="210" y="1110" as="sourcePoint" />
            <mxPoint x="240" y="1110" as="targetPoint" />
          </mxGeometry>
        </mxCell>
        <mxCell id="peirUXlElTm4W4tFbfPy-84" value="&lt;span style=&quot;font-size: 20px;&quot;&gt;의사 소속 병원 정보 조회&lt;/span&gt;" style="rounded=0;whiteSpace=wrap;html=1;" parent="1" vertex="1">
          <mxGeometry x="240" y="1100" width="240" height="30" as="geometry" />
        </mxCell>
        <mxCell id="peirUXlElTm4W4tFbfPy-86" value="" style="endArrow=none;html=1;rounded=0;" parent="1" edge="1">
          <mxGeometry width="50" height="50" relative="1" as="geometry">
            <mxPoint x="480" y="1110" as="sourcePoint" />
            <mxPoint x="520" y="1110" as="targetPoint" />
          </mxGeometry>
        </mxCell>
        <mxCell id="peirUXlElTm4W4tFbfPy-88" value="&lt;span style=&quot;font-size: 20px;&quot;&gt;보유 의료 기기 조회&lt;/span&gt;" style="rounded=0;whiteSpace=wrap;html=1;" parent="1" vertex="1">
          <mxGeometry x="520" y="1100" width="240" height="30" as="geometry" />
        </mxCell>
        <mxCell id="peirUXlElTm4W4tFbfPy-89" style="edgeStyle=orthogonalEdgeStyle;rounded=0;orthogonalLoop=1;jettySize=auto;html=1;endArrow=none;endFill=0;" parent="1" edge="1">
          <mxGeometry relative="1" as="geometry">
            <mxPoint x="490" y="1150" as="targetPoint" />
            <mxPoint x="490" y="1110" as="sourcePoint" />
          </mxGeometry>
        </mxCell>
        <mxCell id="peirUXlElTm4W4tFbfPy-90" value="" style="endArrow=none;html=1;rounded=0;" parent="1" edge="1">
          <mxGeometry width="50" height="50" relative="1" as="geometry">
            <mxPoint x="490" y="1150" as="sourcePoint" />
            <mxPoint x="520" y="1150" as="targetPoint" />
          </mxGeometry>
        </mxCell>
        <mxCell id="peirUXlElTm4W4tFbfPy-91" value="&lt;span style=&quot;font-size: 20px;&quot;&gt;보유 병상 조회&lt;/span&gt;" style="rounded=0;whiteSpace=wrap;html=1;" parent="1" vertex="1">
          <mxGeometry x="520" y="1140" width="240" height="30" as="geometry" />
        </mxCell>
        <mxCell id="peirUXlElTm4W4tFbfPy-92" value="" style="endArrow=none;html=1;rounded=0;" parent="1" edge="1">
          <mxGeometry width="50" height="50" relative="1" as="geometry">
            <mxPoint x="450" y="724.5699999999999" as="sourcePoint" />
            <mxPoint x="490" y="724.5699999999999" as="targetPoint" />
          </mxGeometry>
        </mxCell>
        <mxCell id="peirUXlElTm4W4tFbfPy-93" value="&lt;span style=&quot;font-size: 20px;&quot;&gt;병원 조회&lt;/span&gt;" style="rounded=0;whiteSpace=wrap;html=1;" parent="1" vertex="1">
          <mxGeometry x="490" y="710" width="120" height="30" as="geometry" />
        </mxCell>
      </root>
    </mxGraphModel>
  </diagram>
</mxfile>
